<?xml version="1.0" encoding="utf-8"?>
<!-- Generator: Adobe Illustrator 25.2.0, SVG Export Plug-In . SVG Version: 6.00 Build 0)  -->
<svg version="1.1" id="Layer_1" xmlns="http://www.w3.org/2000/svg" xmlns:xlink="http://www.w3.org/1999/xlink" x="0px" y="0px"
	 viewBox="0 0 215 66" style="enable-background:new 0 0 215 66;" xml:space="preserve">
<style type="text/css">
	.st0{fill:none;}
	.st1{fill:#3BB77E;}
	.st2{fill:#F3FF5F;}
	.st3{fill:#253D4E;}
</style>
<rect y="6" class="st0" width="78" height="60"/>
<ellipse transform="matrix(0.103 -0.9947 0.9947 0.103 27.6914 84.0408)" class="st1" cx="60.4" cy="26.7" rx="19.4" ry="13.5"/>
<ellipse transform="matrix(0.9464 -0.3231 0.3231 0.9464 -8.3654 15.0193)" class="st1" cx="41.1" cy="32.7" rx="13.5" ry="19.4"/>
<path class="st2" d="M27,39h48.1c0.4,0.2,1.3,0.8,1.7,2c0.6,1.5,2.2,23.5-25.3,19c-21.6,0-26.7-0.7-26.5-1c4-1,4.5-5,5-8
	S27,39,27,39z"/>
<path class="st3" d="M63.1,18.4c-0.6,0-1.1,0.5-1.1,1.1v0.2c0,0.6,0.5,1.1,1.1,1.1s1.1-0.5,1.1-1.1v-0.2
	C64.3,18.9,63.7,18.4,63.1,18.4z"/>
<path class="st3" d="M66.1,23.5c-0.6,0-1.1,0.5-1.1,1.1v0.2c0,0.6,0.5,1.1,1.1,1.1c0.6,0,1.1-0.5,1.1-1.1v-0.2
	C67.2,24,66.7,23.5,66.1,23.5z"/>
<path class="st3" d="M41.1,22.5L41,22.3c-0.3-0.6-1-0.8-1.5-0.5c-0.6,0.3-0.8,1-0.5,1.5l0.1,0.2c0.2,0.4,0.6,0.6,1,0.6
	c0.2,0,0.4,0,0.5-0.1C41.1,23.7,41.4,23,41.1,22.5z"/>
<path class="st3" d="M46.1,25.6L46,25.4c-0.3-0.6-1-0.8-1.5-0.5c-0.6,0.3-0.8,1-0.5,1.5l0.1,0.2c0.2,0.4,0.6,0.6,1,0.6
	c0.2,0,0.4,0,0.5-0.1C46.1,26.9,46.3,26.2,46.1,25.6z"/>
<path class="st3" d="M38.9,48.3l-3.4-3.4c-0.4-0.4-1.2-0.4-1.6,0c-0.4,0.4-0.4,1.2,0,1.6l3.4,3.4c0.2,0.2,0.5,0.3,0.8,0.3
	c0.3,0,0.6-0.1,0.8-0.3C39.4,49.5,39.4,48.8,38.9,48.3z"/>
<path class="st3" d="M49,46.2c-0.4-0.5-1.1-0.6-1.6-0.3l-11.9,8.4c-0.5,0.4-0.6,1.1-0.3,1.6c0.2,0.3,0.6,0.5,0.9,0.5
	c0.2,0,0.5-0.1,0.7-0.2l11.9-8.4C49.3,47.4,49.4,46.7,49,46.2z"/>
<path class="st3" d="M53.2,47.9c-0.4-0.5-1.1-0.6-1.6-0.3l-4.6,3.2c-0.5,0.4-0.6,1.1-0.3,1.6c0.2,0.3,0.6,0.5,0.9,0.5
	c0.2,0,0.5-0.1,0.7-0.2l4.6-3.2C53.5,49.2,53.6,48.4,53.2,47.9z"/>
<path class="st3" d="M77.8,42.7c-0.4-0.5-1.1-0.6-1.6-0.3l-0.4,0.3c0-0.1,0-0.2,0-0.3c0-1.1-0.4-2.1-1.2-2.9
	c-0.8-0.8-1.8-1.2-2.9-1.2h-0.3c1.3-2.4,1.9-5.3,1.9-8.7c0-6.6-2.5-13.8-6.3-18.4c-0.4-0.5-1.1-0.5-1.6-0.1
	c-0.5,0.4-0.5,1.1-0.1,1.6c3.5,4.2,5.8,10.8,5.8,16.9c0,3.5-0.8,6.4-2.2,8.7h-2.3l1-0.7c0.5-0.4,0.6-1.1,0.3-1.6
	c-0.4-0.5-1.1-0.6-1.6-0.3l-3.6,2.6h-6.8c0.7-3.5,0-7.3-2.1-11.3c-1.5-2.8-3.6-5.6-6-7.9c2.5-6.3,6.6-10.3,10.6-10.3
	c1.2,0,2.4,0.4,3.6,1.1c0.5,0.3,1.2,0.1,1.6-0.4c0.3-0.5,0.1-1.2-0.4-1.6c-1.6-0.9-3.2-1.4-4.8-1.4c-4.9,0-9.5,4.2-12.4,11
	c-1-0.8-2-1.6-3.1-2.2c-4.9-3-9.6-3.7-13.1-1.8c-3.3,1.7-5.4,5.5-5.9,10.7c-0.1,0.6,0.4,1.2,1,1.3c0.6,0.1,1.2-0.4,1.3-1
	c0.5-4.4,2.1-7.5,4.7-8.9c6.2-3.3,16.5,4.2,20.9,12.6c1.9,3.7,2.5,7.2,1.8,10.3H40.6c0,0,0,0,0,0h-5.9l-1.9-1.9
	c-0.4-0.4-1.2-0.4-1.6,0c-0.4,0.4-0.4,1.2,0,1.6l0.3,0.3h-3.1c-1.3-2.9-2.1-6.2-2.4-9.4c-0.1-0.6-0.6-1.1-1.2-1
	c-0.6,0.1-1.1,0.6-1,1.2c0.2,2.6,0.8,5.2,1.6,7.7c-3.3-2.8-7.5-4.3-11.9-4c-0.4,0-0.8,0.3-1,0.6c-1.7,3.4-2.2,7.2-1.5,10.9
	c0,0.1,0,0.2,0.1,0.3c0.2,1,0.5,2.1,1,3c-4.9,0.8-9.2,3.6-11.8,7.9c-0.2,0.3-0.2,0.8,0,1.1c1.8,3.3,4.7,5.9,8.2,7.4
	c0.1,0.1,0.2,0.1,0.3,0.1c1.9,0.8,3.9,1.2,6,1.2c0.1,0,0.2,0,0.3,0c0.8,0,1.6-0.1,2.4-0.2c0.1,0,0.1,0,0.2,0
	c3.4-0.5,6.5-2.1,8.9-4.4c0.1,0,0.1,0,0.2,0h5.1c0.6,0,1.1-0.5,1.1-1.1c0-0.6-0.5-1.1-1.1-1.1h-3.3c0.3-0.4,0.6-0.8,0.8-1.3
	c0,0,0,0,0,0c0,0,0,0,0,0c2.7-5.3,2.4-11.6-0.8-16.6h5.2l3.1,3.1c0.2,0.2,0.5,0.3,0.8,0.3c0.3,0,0.6-0.1,0.8-0.3
	c0.4-0.4,0.4-1.2,0-1.6L37,40.7h3.1l4.2,4.2c0.2,0.2,0.5,0.3,0.8,0.3c0.3,0,0.6-0.1,0.8-0.3c0.4-0.4,0.4-1.2,0-1.6l-2.6-2.6h10.9
	c0,0,0,0,0,0c0,0,0,0,0,0h5.1l-2.5,1.8c-0.5,0.4-0.6,1.1-0.3,1.6c0.2,0.3,0.6,0.5,0.9,0.5c0.2,0,0.5-0.1,0.7-0.2l5.1-3.6h6.1
	c0,0,0,0,0,0c0,0,0,0,0,0h2.4c0.5,0,0.9,0.2,1.3,0.5c0.3,0.3,0.5,0.8,0.5,1.3c0,0.7,0,1.4-0.1,2l-8.4,6c-0.5,0.4-0.6,1.1-0.3,1.6
	c0.2,0.3,0.6,0.5,0.9,0.5c0.2,0,0.5-0.1,0.7-0.2l6.2-4.5c-1.2,3.5-3.6,6.4-6.7,8.3L53.1,43.5c-0.4-0.4-1.2-0.4-1.6,0
	c-0.4,0.4-0.4,1.2,0,1.6l12.2,12.2c-1.7,0.7-3.5,1.1-5.3,1.3l-5-5c-0.4-0.4-1.2-0.4-1.6,0c-0.4,0.4-0.4,1.2,0,1.6l3.4,3.4H44
	l-1.8-1.8c-0.4-0.4-1.2-0.4-1.6,0c-0.4,0.4-0.4,1.2,0,1.6l0.2,0.2h-4.2c-0.6,0-1.1,0.5-1.1,1.1c0,0.6,0.5,1.1,1.1,1.1H43l2.6,2.6
	c0.2,0.2,0.5,0.3,0.8,0.3c0.3,0,0.6-0.1,0.8-0.3c0.4-0.4,0.4-1.2,0-1.6l-1-1h11.1c2.9,0,5.6-0.7,8-1.8l1,1c0.2,0.2,0.5,0.3,0.8,0.3
	c0.3,0,0.6-0.1,0.8-0.3c0.4-0.4,0.4-1.2,0-1.6l-0.5-0.5c4.1-2.7,7.1-7,8-12.1l2-1.5C78,44,78.2,43.3,77.8,42.7z M26.6,41.7
	c0.1,0.2,0.2,0.4,0.4,0.6L24,48l-3.3-5.1l2.3-5C24.4,38.9,25.6,40.2,26.6,41.7z M22.8,50.2l-6.3,0.3c-0.4-0.5-0.8-1-1.2-1.6
	c-0.8-1.1-1.3-2.4-1.7-3.7l5.9-0.1L22.8,50.2z M21.1,36.7l-1.8,4l-3.6-5.6C17.5,35.3,19.4,35.8,21.1,36.7z M13.7,36.3L18,43l-5,0.1
	C12.8,40.8,13,38.5,13.7,36.3z M13.1,49.8c0.1,0.2,0.2,0.3,0.3,0.4c0.5,0.8,1.1,1.5,1.7,2.2c0,0.1,0.1,0.1,0.2,0.2
	c1,1.1,2.2,2,3.4,2.8l-6-0.1l-2.8-4.7C10.9,50.2,12,49.9,13.1,49.8z M7.7,51.4l2.3,3.8l-6.7-0.1C4.5,53.6,6,52.3,7.7,51.4z
	 M8.5,61.7c-2-1-3.8-2.5-5.2-4.3l7.9,0.2L8.5,61.7z M16.6,63.1c-0.6,0.1-1.3,0.1-2,0.1c-1.4,0-2.7-0.3-4-0.7l3.3-4.9l6,0.1
	L16.6,63.1z M19.7,62.4l2.8-4.6l3.5,0.1c0.1,0,0.1,0,0.2,0C24.5,59.9,22.2,61.5,19.7,62.4z M26.1,55.5c-2.7-0.3-5.2-1.2-7.3-2.8
	l5.4-0.3l2,3.1L26.1,55.5z M28.2,54.3l-2.7-4.1l2.7-5.3C29.2,47.9,29.2,51.3,28.2,54.3z"/>
<path class="st3" d="M66.6,44.7c-0.4-0.5-1.1-0.6-1.6-0.3l-4,2.9c-0.5,0.4-0.6,1.1-0.3,1.6c0.2,0.3,0.6,0.5,0.9,0.5
	c0.2,0,0.5-0.1,0.7-0.2l4-2.9C66.8,45.9,66.9,45.2,66.6,44.7z"/>
<path class="st3" d="M-39.4,150.8l0-5.1l-2.5,4.2h-0.6l-2.5-4.1v5h-1.4v-7.6h1.2l3,5.1l3-5.1h1.2l0,7.6H-39.4z M-29.9,149h-3.8
	l-0.8,1.8H-36l3.4-7.6h1.4l3.4,7.6h-1.5L-29.9,149z M-30.4,147.9l-1.4-3.3l-1.4,3.3H-30.4z M-20.6,150.8l-1.6-2.2
	c-0.1,0-0.2,0-0.3,0h-1.7v2.2h-1.4v-7.6h3.1c0.7,0,1.2,0.1,1.7,0.3c0.5,0.2,0.9,0.5,1.1,0.9c0.3,0.4,0.4,0.9,0.4,1.4
	c0,0.6-0.1,1.1-0.4,1.5c-0.3,0.4-0.7,0.7-1.2,0.9l1.8,2.5H-20.6z M-20.7,145.9c0-0.5-0.2-0.9-0.5-1.1c-0.3-0.3-0.8-0.4-1.4-0.4h-1.7
	v3h1.7c0.6,0,1.1-0.1,1.4-0.4C-20.8,146.8-20.7,146.4-20.7,145.9z M-15.1,144.4h-2.5v-1.2h6.5v1.2h-2.5v6.4h-1.4V144.4z M0.8,150.9
	l-1-0.9c-0.7,0.6-1.6,0.9-2.6,0.9c-0.5,0-1-0.1-1.4-0.3c-0.4-0.2-0.8-0.4-1-0.7c-0.2-0.3-0.4-0.7-0.4-1.1c0-0.5,0.1-0.9,0.4-1.2
	c0.3-0.4,0.7-0.7,1.4-1.1c-0.3-0.3-0.5-0.6-0.7-0.9c-0.1-0.3-0.2-0.5-0.2-0.8c0-0.5,0.2-1,0.6-1.3c0.4-0.3,0.9-0.5,1.6-0.5
	c0.6,0,1.1,0.2,1.5,0.5c0.4,0.3,0.6,0.7,0.6,1.2c0,0.4-0.1,0.7-0.4,1c-0.2,0.3-0.6,0.6-1.2,0.9l1.6,1.6c0.2-0.4,0.3-0.8,0.4-1.3
	l1.1,0.4c-0.1,0.7-0.4,1.3-0.7,1.7l1,0.9L0.8,150.9z M-2.4,144.1c-0.3,0-0.5,0.1-0.7,0.2c-0.2,0.1-0.3,0.3-0.3,0.6
	c0,0.2,0,0.3,0.1,0.5c0.1,0.2,0.3,0.4,0.5,0.6c0.4-0.2,0.7-0.4,0.9-0.6c0.2-0.2,0.3-0.4,0.3-0.6c0-0.2-0.1-0.4-0.2-0.5
	C-1.9,144.1-2.1,144.1-2.4,144.1z M-2.6,149.8c0.6,0,1.2-0.2,1.7-0.6l-2-1.9c-0.4,0.2-0.7,0.5-0.9,0.7c-0.2,0.2-0.3,0.5-0.3,0.7
	c0,0.3,0.1,0.6,0.4,0.8C-3.5,149.7-3.1,149.8-2.6,149.8z M13.2,146.9h1.3v3c-0.4,0.3-0.8,0.6-1.4,0.7c-0.5,0.2-1.1,0.3-1.6,0.3
	c-0.8,0-1.5-0.2-2.1-0.5c-0.6-0.3-1.1-0.8-1.5-1.4c-0.4-0.6-0.5-1.3-0.5-2c0-0.7,0.2-1.4,0.5-2c0.4-0.6,0.8-1.1,1.5-1.4
	c0.6-0.3,1.3-0.5,2.1-0.5c0.6,0,1.2,0.1,1.7,0.3c0.5,0.2,1,0.5,1.3,0.9l-0.9,0.9c-0.6-0.6-1.3-0.9-2.1-0.9c-0.5,0-1,0.1-1.4,0.3
	c-0.4,0.2-0.7,0.5-1,0.9C9,146,8.8,146.5,8.8,147c0,0.5,0.1,1,0.3,1.4c0.2,0.4,0.6,0.7,1,1c0.4,0.2,0.9,0.3,1.4,0.3
	c0.6,0,1.1-0.1,1.6-0.4V146.9z M22.5,150.8l-1.6-2.2c-0.1,0-0.2,0-0.3,0h-1.7v2.2h-1.4v-7.6h3.1c0.7,0,1.2,0.1,1.7,0.3
	c0.5,0.2,0.9,0.5,1.1,0.9c0.3,0.4,0.4,0.9,0.4,1.4c0,0.6-0.1,1.1-0.4,1.5c-0.3,0.4-0.7,0.7-1.2,0.9l1.8,2.5H22.5z M22.4,145.9
	c0-0.5-0.2-0.9-0.5-1.1c-0.3-0.3-0.8-0.4-1.4-0.4h-1.7v3h1.7c0.6,0,1.1-0.1,1.4-0.4C22.3,146.8,22.4,146.4,22.4,145.9z M30.1,150.9
	c-0.8,0-1.5-0.2-2.1-0.5c-0.6-0.3-1.1-0.8-1.5-1.4c-0.4-0.6-0.5-1.3-0.5-2c0-0.7,0.2-1.4,0.5-2c0.4-0.6,0.8-1.1,1.5-1.4
	c0.6-0.3,1.3-0.5,2.1-0.5c0.8,0,1.5,0.2,2.1,0.5c0.6,0.3,1.1,0.8,1.5,1.4c0.4,0.6,0.5,1.3,0.5,2c0,0.7-0.2,1.4-0.5,2
	c-0.4,0.6-0.8,1.1-1.5,1.4C31.6,150.7,30.9,150.9,30.1,150.9z M30.1,149.7c0.5,0,1-0.1,1.4-0.3c0.4-0.2,0.7-0.6,1-1
	c0.2-0.4,0.3-0.9,0.3-1.4s-0.1-1-0.3-1.4c-0.2-0.4-0.6-0.7-1-1c-0.4-0.2-0.9-0.3-1.4-0.3c-0.5,0-1,0.1-1.4,0.3c-0.4,0.2-0.7,0.5-1,1
	c-0.2,0.4-0.3,0.9-0.3,1.4s0.1,1,0.3,1.4c0.2,0.4,0.6,0.7,1,1C29.1,149.6,29.6,149.7,30.1,149.7z M40.3,150.9
	c-0.8,0-1.5-0.2-2.1-0.5c-0.6-0.3-1.1-0.8-1.5-1.4c-0.3-0.6-0.5-1.3-0.5-2c0-0.7,0.2-1.4,0.5-2s0.8-1.1,1.5-1.4
	c0.6-0.3,1.3-0.5,2.1-0.5c0.6,0,1.2,0.1,1.7,0.3c0.5,0.2,1,0.5,1.3,0.9l-0.9,0.9c-0.6-0.6-1.2-0.9-2-0.9c-0.5,0-1,0.1-1.4,0.3
	c-0.4,0.2-0.7,0.5-1,0.9c-0.2,0.4-0.3,0.9-0.3,1.4s0.1,1,0.3,1.4c0.2,0.4,0.6,0.7,1,1c0.4,0.2,0.9,0.3,1.4,0.3c0.8,0,1.5-0.3,2-0.9
	l0.9,0.9c-0.4,0.4-0.8,0.7-1.3,0.9C41.5,150.8,41,150.9,40.3,150.9z M51.5,149.6v1.2h-5.7v-7.6h5.6v1.2h-4.2v2h3.7v1.2h-3.7v2.1
	H51.5z M59.2,150.8l-1.6-2.2c-0.1,0-0.2,0-0.3,0h-1.7v2.2h-1.4v-7.6h3.1c0.7,0,1.2,0.1,1.7,0.3c0.5,0.2,0.9,0.5,1.1,0.9
	c0.3,0.4,0.4,0.9,0.4,1.4c0,0.6-0.1,1.1-0.4,1.5c-0.3,0.4-0.7,0.7-1.2,0.9l1.8,2.5H59.2z M59.2,145.9c0-0.5-0.2-0.9-0.5-1.1
	c-0.3-0.3-0.8-0.4-1.4-0.4h-1.7v3h1.7c0.6,0,1.1-0.1,1.4-0.4C59,146.8,59.2,146.4,59.2,145.9z M66.4,148.1v2.7H65v-2.7l-3-5h1.5
	l2.2,3.7l2.3-3.7h1.4L66.4,148.1z"/>
<path class="st1" d="M94.8,100.1c0.9,0,1.6,0.3,2.2,0.9c0.6,0.6,0.8,1.3,0.8,2.2v32.4c0,1-0.3,1.8-1,2.4c-0.6,0.6-1.4,0.9-2.4,0.9
	c-0.5,0-1-0.1-1.5-0.2c-0.5-0.2-0.9-0.4-1.1-0.7L70,110.3l1.4-0.9v26.4c0,0.9-0.3,1.6-0.9,2.2c-0.6,0.6-1.3,0.9-2.2,0.9
	c-0.9,0-1.6-0.3-2.2-0.9c-0.6-0.6-0.8-1.3-0.8-2.2v-32.4c0-1,0.3-1.8,0.9-2.4c0.7-0.7,1.5-1,2.4-1c0.5,0,1.1,0.1,1.6,0.3
	c0.6,0.2,1,0.5,1.2,0.9l21.1,27l-0.9,0.7v-25.8c0-0.9,0.3-1.6,0.8-2.2C93.2,100.4,93.9,100.1,94.8,100.1z M119.3,139.5
	c-3.1,0-5.9-0.6-8.2-1.9c-2.3-1.3-4.1-3.1-5.3-5.4c-1.2-2.3-1.8-4.8-1.8-7.7c0-3.3,0.7-6.2,2-8.5c1.4-2.4,3.1-4.2,5.3-5.4
	c2.2-1.3,4.5-1.9,6.9-1.9c1.9,0,3.7,0.4,5.3,1.2c1.7,0.8,3.2,1.8,4.5,3.2c1.3,1.3,2.3,2.9,3.1,4.7c0.8,1.8,1.2,3.7,1.2,5.7
	c0,0.9-0.4,1.6-1.1,2.2s-1.4,0.8-2.3,0.8h-21.2l-1.7-5.6h20.4l-1.2,1.1v-1.5c-0.1-1.1-0.5-2-1.2-2.9c-0.7-0.9-1.5-1.5-2.6-2
	c-1-0.5-2.1-0.8-3.2-0.8c-1.1,0-2.1,0.1-3.1,0.4s-1.8,0.8-2.5,1.5c-0.7,0.7-1.3,1.6-1.7,2.8c-0.4,1.2-0.6,2.7-0.6,4.5
	c0,2,0.4,3.7,1.2,5.1c0.9,1.4,1.9,2.4,3.2,3.2c1.3,0.7,2.7,1.1,4.2,1.1c1.4,0,2.5-0.1,3.3-0.3s1.5-0.5,1.9-0.8
	c0.5-0.3,1-0.6,1.4-0.8c0.7-0.3,1.3-0.5,1.9-0.5c0.8,0,1.5,0.3,2,0.8c0.6,0.6,0.8,1.2,0.8,1.9c0,1-0.5,1.9-1.6,2.7
	c-1,0.8-2.3,1.5-4.1,2.2C122.9,139.2,121.1,139.5,119.3,139.5z M136,134.3c-0.4-0.5-0.5-1.2-0.5-2c0-0.8,0.5-1.5,1.4-2.1
	c0.6-0.4,1.2-0.5,1.9-0.4c0.7,0,1.3,0.4,1.9,1c1.1,1.1,2.2,1.9,3.4,2.5c1.2,0.6,2.7,0.9,4.4,0.9c0.6,0,1.2-0.1,1.8-0.2
	c0.7-0.1,1.2-0.4,1.7-0.9c0.5-0.5,0.8-1.2,0.8-2.2c0-0.8-0.3-1.5-0.8-1.9s-1.3-0.9-2.2-1.2c-0.9-0.3-1.9-0.6-3-0.9
	c-1.1-0.3-2.3-0.7-3.6-1.1c-1.2-0.4-2.3-0.9-3.3-1.6c-1-0.7-1.8-1.5-2.4-2.6c-0.6-1.1-0.9-2.4-0.9-4.1c0-1.9,0.5-3.4,1.6-4.7
	c1-1.3,2.4-2.3,4-3c1.7-0.7,3.4-1.1,5.2-1.1c1.1,0,2.3,0.1,3.6,0.4c1.3,0.3,2.5,0.7,3.6,1.3c1.1,0.6,2.1,1.4,2.9,2.4
	c0.4,0.6,0.6,1.2,0.7,2c0.1,0.8-0.3,1.5-1.1,2.1c-0.6,0.4-1.2,0.6-1.9,0.6c-0.7-0.1-1.3-0.3-1.8-0.8c-0.6-0.8-1.5-1.5-2.6-1.9
	c-1-0.5-2.2-0.7-3.6-0.7c-0.6,0-1.2,0.1-1.8,0.2c-0.6,0.1-1.2,0.4-1.7,0.8c-0.5,0.4-0.7,1.1-0.7,2c0,0.9,0.3,1.5,0.8,2.1
	c0.6,0.5,1.3,0.9,2.2,1.2c1,0.3,2,0.6,3.1,0.9c1.1,0.3,2.2,0.6,3.4,1.1s2.2,0.9,3.2,1.6c1,0.7,1.7,1.5,2.3,2.6c0.6,1,0.9,2.4,0.9,4
	c0,1.9-0.6,3.5-1.7,4.8s-2.5,2.3-4.2,3.1c-1.7,0.7-3.4,1-5.1,1c-2.2,0-4.4-0.4-6.5-1.1C139.3,137.6,137.5,136.3,136,134.3z
	 M164.8,109.8H178c0.9,0,1.6,0.3,2.2,0.9c0.6,0.6,0.9,1.3,0.9,2.2c0,0.9-0.3,1.6-0.9,2.2c-0.6,0.6-1.3,0.8-2.2,0.8h-13.2
	c-0.9,0-1.6-0.3-2.2-0.9c-0.6-0.6-0.9-1.3-0.9-2.2c0-0.9,0.3-1.6,0.9-2.1C163.2,110.1,164,109.8,164.8,109.8z M170.8,102.9
	c1,0,1.7,0.3,2.3,1c0.6,0.6,0.9,1.4,0.9,2.4v24.7c0,0.5,0.1,0.9,0.3,1.3c0.2,0.3,0.5,0.6,0.8,0.7c0.4,0.1,0.8,0.2,1.2,0.2
	c0.4,0,0.9-0.1,1.2-0.2c0.4-0.2,0.8-0.3,1.3-0.3c0.5,0,1,0.2,1.4,0.7c0.4,0.5,0.7,1.1,0.7,2c0,1-0.6,1.9-1.7,2.6
	c-1.1,0.7-2.3,1-3.6,1c-0.8,0-1.6-0.1-2.6-0.2c-0.9-0.1-1.8-0.5-2.7-0.9c-0.8-0.5-1.5-1.3-2.1-2.3c-0.6-1-0.8-2.5-0.8-4.3v-25
	c0-1,0.3-1.8,0.9-2.4C169,103.2,169.8,102.9,170.8,102.9z"/>
<g>
	<path class="st1" d="M99.8,36.7c-2.6,0-4.8-0.5-6.6-1.5c-1.8-1-3.2-2.4-4.1-4.2c-0.9-1.8-1.4-3.9-1.4-6.3c0-2.5,0.5-4.6,1.5-6.4
		c1-1.8,2.4-3.2,4.2-4.2c1.8-1,4.1-1.5,6.7-1.5c1.2,0,2.4,0.1,3.6,0.4c1.2,0.3,2.3,0.7,3.4,1.3c0.6,0.3,1,0.8,1.1,1.3
		c0.1,0.5,0.1,1.1-0.2,1.6c-0.2,0.5-0.6,0.9-1.1,1.1s-1.1,0.2-1.8-0.1c-1.5-0.8-3.1-1.2-5-1.2c-2.4,0-4.1,0.7-5.3,2
		c-1.2,1.3-1.8,3.2-1.8,5.7c0,2.5,0.6,4.4,1.8,5.6c1.2,1.3,3,1.9,5.3,1.9c1.3,0,2.6-0.2,4-0.6v-4.6h-3c-1.4,0-2-0.6-2-1.8
		s0.7-1.8,2-1.8h5.2c1.3,0,2,0.7,2,2v7.7c0,0.6-0.1,1.1-0.3,1.5c-0.2,0.4-0.6,0.7-1.1,0.9c-1,0.4-2.1,0.6-3.3,0.9
		C102.2,36.6,101,36.7,99.8,36.7z"/>
	<path class="st1" d="M114.9,36.7c-1.7,0-2.6-0.8-2.6-2.5V22.4c0-1.7,0.8-2.5,2.4-2.5c1.6,0,2.4,0.8,2.4,2.5V23c0.8-2,2.4-3,4.9-3.2
		c0.5,0,1,0.1,1.3,0.4c0.3,0.3,0.5,0.8,0.5,1.6c0,0.7-0.1,1.2-0.4,1.6c-0.3,0.4-0.9,0.6-1.6,0.7l-0.8,0.1c-2.5,0.2-3.7,1.5-3.7,3.8
		v6.1C117.4,35.8,116.6,36.7,114.9,36.7z"/>
	<path class="st1" d="M133.4,36.7c-1.7,0-3.3-0.3-4.5-1c-1.3-0.7-2.3-1.7-3-2.9c-0.7-1.3-1.1-2.8-1.1-4.5c0-1.7,0.4-3.2,1.1-4.5
		s1.7-2.2,3-2.9c1.3-0.7,2.8-1,4.5-1c1.7,0,3.2,0.3,4.5,1s2.3,1.7,3,2.9s1.1,2.8,1.1,4.5c0,1.7-0.4,3.2-1.1,4.5
		c-0.7,1.3-1.7,2.2-3,2.9S135.2,36.7,133.4,36.7z M133.4,33c1.1,0,1.9-0.4,2.6-1.2c0.7-0.8,1-2,1-3.6c0-1.6-0.3-2.8-1-3.5
		c-0.7-0.8-1.5-1.1-2.6-1.1s-1.9,0.4-2.6,1.1s-1,1.9-1,3.5c0,1.6,0.3,2.8,1,3.6C131.5,32.6,132.4,33,133.4,33z"/>
	<path class="st1" d="M153,36.7c-1.8,0-3.3-0.3-4.6-1s-2.3-1.7-3-3c-0.7-1.3-1.1-2.8-1.1-4.5c0-1.7,0.4-3.2,1.1-4.5
		c0.7-1.3,1.7-2.2,3-2.9c1.3-0.7,2.8-1,4.6-1c0.7,0,1.4,0.1,2.2,0.2s1.5,0.4,2.3,0.8c0.5,0.3,0.9,0.6,1,1.1s0.1,0.9-0.1,1.4
		s-0.5,0.8-0.9,1c-0.4,0.2-0.9,0.2-1.4-0.1c-0.9-0.5-1.7-0.7-2.6-0.7c-1.3,0-2.3,0.4-3,1.2c-0.7,0.8-1.1,1.9-1.1,3.4
		c0,1.5,0.4,2.6,1.1,3.4c0.7,0.8,1.7,1.2,3,1.2c0.4,0,0.8,0,1.3-0.1c0.4-0.1,0.9-0.3,1.3-0.5c0.5-0.3,1-0.3,1.4-0.1
		c0.4,0.2,0.7,0.6,0.8,1c0.2,0.5,0.2,0.9,0,1.4c-0.1,0.5-0.5,0.9-1,1.1c-0.7,0.4-1.5,0.6-2.2,0.8C154.4,36.6,153.6,36.7,153,36.7z"
		/>
	<path class="st1" d="M168.9,36.7c-1.9,0-3.6-0.3-4.9-1s-2.4-1.7-3.2-2.9c-0.7-1.3-1.1-2.8-1.1-4.5c0-1.7,0.4-3.1,1.1-4.4
		c0.7-1.3,1.7-2.3,2.9-3c1.2-0.7,2.7-1.1,4.3-1.1c2.4,0,4.2,0.7,5.6,2.2c1.4,1.5,2.1,3.5,2.1,6c0,0.8-0.5,1.3-1.6,1.3h-9.7
		c0.2,1.3,0.6,2.2,1.4,2.8c0.8,0.6,1.8,0.9,3.2,0.9c0.5,0,1.1-0.1,1.8-0.2c0.7-0.1,1.3-0.3,1.9-0.6c0.6-0.3,1.2-0.4,1.6-0.2
		c0.4,0.2,0.7,0.5,0.9,0.9c0.2,0.4,0.2,0.9,0,1.4c-0.2,0.5-0.5,0.9-1.1,1.2c-0.8,0.4-1.6,0.7-2.6,0.9
		C170.7,36.6,169.8,36.7,168.9,36.7z M168.2,23.1c-1.1,0-1.9,0.3-2.6,1c-0.6,0.6-1.1,1.5-1.2,2.7h7.1
		C171.5,24.3,170.4,23.1,168.2,23.1z"/>
	<path class="st1" d="M181.2,36.7c-1.7,0-2.6-0.8-2.6-2.5V22.4c0-1.7,0.8-2.5,2.4-2.5c1.6,0,2.4,0.8,2.4,2.5V23c0.8-2,2.4-3,4.9-3.2
		c0.5,0,1,0.1,1.3,0.4c0.3,0.3,0.5,0.8,0.5,1.6c0,0.7-0.1,1.2-0.4,1.6c-0.3,0.4-0.9,0.6-1.6,0.7l-0.8,0.1c-2.5,0.2-3.7,1.5-3.7,3.8
		v6.1C183.7,35.8,182.9,36.7,181.2,36.7z"/>
	<path class="st1" d="M198.3,36.7c-1,0-2-0.1-3-0.3c-1-0.2-2-0.5-2.8-0.9c-0.5-0.3-0.9-0.6-1.1-1.1s-0.2-0.9,0-1.3
		c0.2-0.4,0.4-0.7,0.8-0.9c0.4-0.2,0.9-0.2,1.4,0c0.9,0.4,1.7,0.6,2.5,0.8c0.8,0.2,1.5,0.2,2.2,0.2c0.9,0,1.6-0.1,2-0.4
		c0.4-0.3,0.7-0.7,0.7-1.2c0-0.8-0.6-1.3-1.7-1.5l-3.5-0.6c-1.4-0.2-2.4-0.7-3.2-1.5c-0.7-0.7-1.1-1.7-1.1-2.9c0-1.1,0.3-2,0.9-2.8
		c0.6-0.8,1.5-1.4,2.5-1.8c1.1-0.4,2.3-0.7,3.7-0.7c1.9,0,3.7,0.4,5.1,1.1c0.5,0.2,0.8,0.6,0.9,1c0.1,0.4,0.1,0.9-0.1,1.3
		c-0.2,0.4-0.5,0.7-0.9,0.9c-0.4,0.2-0.9,0.2-1.4,0c-0.7-0.3-1.4-0.6-2-0.7c-0.6-0.1-1.2-0.2-1.7-0.2c-1,0-1.7,0.2-2.1,0.5
		c-0.4,0.3-0.7,0.7-0.7,1.2c0,0.8,0.5,1.3,1.6,1.5l3.5,0.6c1.4,0.2,2.5,0.7,3.3,1.4c0.7,0.7,1.1,1.7,1.1,2.9c0,1.7-0.7,3-2,4
		S200.4,36.7,198.3,36.7z"/>
</g>
<g>
	<path d="M96.2,51.3c0,0.1,0.1,0.2,0.1,0.3c0-0.1,0.1-0.2,0.1-0.4c0.1-0.1,0.1-0.2,0.2-0.3l2.1-4c0-0.1,0.1-0.1,0.1-0.1
		c0,0,0.1-0.1,0.1-0.1c0,0,0.1,0,0.1,0c0,0,0.1,0,0.2,0h1v7.2H99v-4.7c0-0.1,0-0.2,0-0.3s0-0.2,0-0.3l-2.2,4.1
		c-0.1,0.1-0.1,0.2-0.2,0.2s-0.2,0.1-0.3,0.1h-0.2c-0.1,0-0.2,0-0.3-0.1s-0.1-0.1-0.2-0.2l-2.2-4.1c0,0.1,0,0.2,0,0.3
		c0,0.1,0,0.2,0,0.3v4.7h-1.2v-7.2h1c0.1,0,0.1,0,0.2,0c0,0,0.1,0,0.1,0c0,0,0.1,0,0.1,0.1c0,0,0.1,0.1,0.1,0.1l2.2,4
		C96.1,51,96.1,51.1,96.2,51.3z"/>
	<path d="M109.5,53.9h-1c-0.1,0-0.2,0-0.3-0.1c-0.1-0.1-0.1-0.1-0.2-0.2l-0.5-1.5h-3l-0.5,1.5c0,0.1-0.1,0.1-0.2,0.2
		s-0.2,0.1-0.3,0.1h-1l2.8-7.2h1.4L109.5,53.9z M104.8,51.2h2.3l-0.9-2.4c0-0.1-0.1-0.2-0.1-0.4c0-0.1-0.1-0.3-0.1-0.5
		c0,0.2-0.1,0.3-0.1,0.5c0,0.1-0.1,0.3-0.1,0.4L104.8,51.2z"/>
	<path d="M113.2,51.1v2.8h-1.3v-7.2h2.2c0.5,0,0.9,0.1,1.3,0.2c0.4,0.1,0.6,0.2,0.9,0.4c0.2,0.2,0.4,0.4,0.5,0.7
		c0.1,0.3,0.2,0.5,0.2,0.8c0,0.2,0,0.5-0.1,0.7c-0.1,0.2-0.2,0.4-0.3,0.6s-0.3,0.3-0.5,0.5c-0.2,0.1-0.4,0.2-0.7,0.3
		c0.2,0.1,0.3,0.2,0.4,0.4l1.8,2.7h-1.2c-0.1,0-0.2,0-0.3-0.1c-0.1,0-0.2-0.1-0.2-0.2l-1.5-2.3c-0.1-0.1-0.1-0.1-0.2-0.2
		c-0.1,0-0.2-0.1-0.3-0.1H113.2z M113.2,50.1h0.8c0.3,0,0.5,0,0.7-0.1c0.2-0.1,0.3-0.2,0.5-0.3c0.1-0.1,0.2-0.2,0.3-0.4
		c0.1-0.2,0.1-0.3,0.1-0.5c0-0.4-0.1-0.6-0.4-0.8c-0.2-0.2-0.6-0.3-1.1-0.3h-0.9V50.1z"/>
	<path d="M124.6,46.7v1.1h-2.2v6.1h-1.3v-6.1h-2.2v-1.1H124.6z"/>
	<path d="M133,46.6c0.3,0,0.6,0,0.8,0.1s0.4,0.2,0.6,0.4c0.2,0.2,0.3,0.3,0.4,0.5c0.1,0.2,0.2,0.4,0.2,0.6l-0.8,0.2c0,0,0,0,0,0
		s0,0,0,0c-0.1,0-0.1,0-0.2,0c0,0-0.1-0.1-0.1-0.1c0-0.1-0.1-0.2-0.1-0.2c0-0.1-0.1-0.1-0.2-0.2c-0.1-0.1-0.1-0.1-0.2-0.1
		s-0.2-0.1-0.3-0.1c-0.1,0-0.3,0-0.4,0.1c-0.1,0-0.2,0.1-0.3,0.2c-0.1,0.1-0.1,0.2-0.2,0.3s-0.1,0.2-0.1,0.3c0,0.1,0,0.2,0,0.3
		c0,0.1,0.1,0.2,0.1,0.3c0,0.1,0.1,0.2,0.2,0.3c0.1,0.1,0.2,0.2,0.3,0.3l1.9,2c0.1-0.2,0.2-0.4,0.3-0.7s0.1-0.5,0.1-0.7
		c0-0.1,0-0.1,0.1-0.2c0,0,0.1-0.1,0.2-0.1h0.8c0,0.4-0.1,0.9-0.2,1.3c-0.1,0.4-0.3,0.8-0.5,1.1l1.5,1.6h-1.2c-0.1,0-0.1,0-0.2,0
		c0,0-0.1,0-0.1,0c0,0-0.1,0-0.1-0.1c0,0-0.1-0.1-0.1-0.1l-0.5-0.5c-0.3,0.3-0.7,0.5-1.1,0.6c-0.4,0.1-0.8,0.2-1.3,0.2
		c-0.3,0-0.6,0-0.8-0.1s-0.5-0.2-0.7-0.4c-0.2-0.2-0.4-0.4-0.5-0.7c-0.1-0.3-0.2-0.5-0.2-0.9c0-0.2,0-0.4,0.1-0.6
		c0.1-0.2,0.2-0.4,0.3-0.6c0.1-0.2,0.3-0.3,0.5-0.5c0.2-0.1,0.4-0.3,0.6-0.4c-0.2-0.2-0.3-0.5-0.4-0.7c-0.1-0.2-0.1-0.5-0.1-0.7
		c0-0.2,0-0.5,0.1-0.7c0.1-0.2,0.2-0.4,0.4-0.6c0.2-0.2,0.4-0.3,0.6-0.4C132.4,46.7,132.7,46.6,133,46.6z M131.3,51.8
		c0,0.2,0,0.3,0.1,0.5s0.2,0.3,0.3,0.4c0.1,0.1,0.2,0.2,0.4,0.2c0.1,0.1,0.3,0.1,0.5,0.1c0.3,0,0.6,0,0.8-0.1
		c0.2-0.1,0.5-0.2,0.7-0.4l-1.9-2c-0.3,0.2-0.5,0.4-0.6,0.6C131.3,51.4,131.3,51.6,131.3,51.8z"/>
	<path d="M145.8,52.9c0.3,0,0.6,0,0.8-0.1c0.2-0.1,0.4-0.1,0.6-0.2v-1.3h-0.9c-0.1,0-0.2,0-0.2-0.1c0,0-0.1-0.1-0.1-0.2v-0.8h2.4
		v2.9c-0.2,0.1-0.4,0.2-0.6,0.3s-0.4,0.2-0.6,0.2c-0.2,0.1-0.5,0.1-0.7,0.1c-0.3,0-0.5,0-0.8,0c-0.5,0-1-0.1-1.5-0.3
		c-0.4-0.2-0.8-0.4-1.2-0.8s-0.6-0.7-0.8-1.2s-0.3-0.9-0.3-1.5c0-0.5,0.1-1,0.3-1.5c0.2-0.5,0.4-0.8,0.8-1.2
		c0.3-0.3,0.7-0.6,1.2-0.8c0.5-0.2,1-0.3,1.6-0.3c0.6,0,1.1,0.1,1.5,0.3c0.4,0.2,0.8,0.4,1.1,0.7l-0.4,0.6c-0.1,0.1-0.2,0.2-0.3,0.2
		c-0.1,0-0.2,0-0.2-0.1c-0.1-0.1-0.2-0.1-0.3-0.2c-0.1-0.1-0.2-0.1-0.4-0.2s-0.3-0.1-0.5-0.1s-0.4,0-0.6,0c-0.4,0-0.7,0.1-1,0.2
		s-0.5,0.3-0.7,0.5c-0.2,0.2-0.4,0.5-0.5,0.8c-0.1,0.3-0.2,0.7-0.2,1c0,0.4,0.1,0.8,0.2,1.1c0.1,0.3,0.3,0.6,0.5,0.8
		c0.2,0.2,0.5,0.4,0.8,0.5C145.2,52.9,145.5,52.9,145.8,52.9z"/>
	<path d="M152.6,51.1v2.8h-1.3v-7.2h2.2c0.5,0,0.9,0.1,1.3,0.2c0.4,0.1,0.6,0.2,0.9,0.4c0.2,0.2,0.4,0.4,0.5,0.7
		c0.1,0.3,0.2,0.5,0.2,0.8c0,0.2,0,0.5-0.1,0.7c-0.1,0.2-0.2,0.4-0.3,0.6s-0.3,0.3-0.5,0.5c-0.2,0.1-0.4,0.2-0.7,0.3
		c0.2,0.1,0.3,0.2,0.4,0.4l1.8,2.7h-1.2c-0.1,0-0.2,0-0.3-0.1c-0.1,0-0.2-0.1-0.2-0.2l-1.5-2.3c-0.1-0.1-0.1-0.1-0.2-0.2
		c-0.1,0-0.2-0.1-0.3-0.1H152.6z M152.6,50.1h0.8c0.3,0,0.5,0,0.7-0.1c0.2-0.1,0.3-0.2,0.5-0.3c0.1-0.1,0.2-0.2,0.3-0.4
		c0.1-0.2,0.1-0.3,0.1-0.5c0-0.4-0.1-0.6-0.4-0.8c-0.2-0.2-0.6-0.3-1.1-0.3h-0.9V50.1z"/>
	<path d="M166,50.3c0,0.5-0.1,1-0.3,1.5c-0.2,0.5-0.4,0.8-0.7,1.2c-0.3,0.3-0.7,0.6-1.2,0.8c-0.5,0.2-0.9,0.3-1.5,0.3
		s-1-0.1-1.5-0.3c-0.5-0.2-0.8-0.4-1.2-0.8c-0.3-0.3-0.6-0.7-0.7-1.2c-0.2-0.5-0.3-0.9-0.3-1.5c0-0.5,0.1-1,0.3-1.5
		c0.2-0.5,0.4-0.8,0.7-1.2c0.3-0.3,0.7-0.6,1.2-0.8c0.5-0.2,1-0.3,1.5-0.3s1,0.1,1.5,0.3s0.8,0.4,1.2,0.8c0.3,0.3,0.6,0.7,0.7,1.2
		C165.9,49.3,166,49.8,166,50.3z M164.6,50.3c0-0.4-0.1-0.8-0.2-1.1c-0.1-0.3-0.3-0.6-0.5-0.8c-0.2-0.2-0.4-0.4-0.7-0.5
		c-0.3-0.1-0.6-0.2-1-0.2s-0.7,0.1-1,0.2c-0.3,0.1-0.5,0.3-0.7,0.5c-0.2,0.2-0.4,0.5-0.5,0.8c-0.1,0.3-0.2,0.7-0.2,1.1
		s0.1,0.8,0.2,1.1c0.1,0.3,0.3,0.6,0.5,0.8c0.2,0.2,0.4,0.4,0.7,0.5c0.3,0.1,0.6,0.2,1,0.2s0.7-0.1,1-0.2c0.3-0.1,0.5-0.3,0.7-0.5
		c0.2-0.2,0.3-0.5,0.5-0.8C164.5,51.1,164.6,50.7,164.6,50.3z"/>
	<path d="M173.5,52.2c0.1,0,0.1,0,0.2,0.1l0.5,0.6c-0.3,0.4-0.7,0.6-1.1,0.8c-0.4,0.2-0.9,0.3-1.5,0.3c-0.5,0-1-0.1-1.4-0.3
		c-0.4-0.2-0.8-0.4-1.1-0.8s-0.5-0.7-0.7-1.2c-0.2-0.5-0.2-0.9-0.2-1.5c0-0.5,0.1-1,0.3-1.5c0.2-0.5,0.4-0.8,0.8-1.2
		c0.3-0.3,0.7-0.6,1.2-0.8s1-0.3,1.5-0.3c0.5,0,1,0.1,1.4,0.3c0.4,0.2,0.7,0.4,1,0.7l-0.5,0.6c0,0-0.1,0.1-0.1,0.1c0,0-0.1,0-0.2,0
		c-0.1,0-0.2,0-0.2-0.1c-0.1-0.1-0.2-0.1-0.3-0.2c-0.1-0.1-0.3-0.1-0.5-0.2c-0.2-0.1-0.4-0.1-0.7-0.1c-0.3,0-0.7,0.1-0.9,0.2
		s-0.5,0.3-0.7,0.5c-0.2,0.2-0.4,0.5-0.5,0.8c-0.1,0.3-0.2,0.7-0.2,1.1c0,0.4,0.1,0.8,0.2,1.1c0.1,0.3,0.3,0.6,0.5,0.8
		c0.2,0.2,0.4,0.4,0.7,0.5c0.3,0.1,0.6,0.2,0.9,0.2c0.2,0,0.3,0,0.5,0c0.1,0,0.3-0.1,0.4-0.1c0.1,0,0.2-0.1,0.4-0.2s0.2-0.2,0.3-0.3
		c0,0,0.1-0.1,0.1-0.1C173.4,52.2,173.5,52.2,173.5,52.2z"/>
	<path d="M181.3,46.7v1.1h-3.2v2h2.5v1h-2.5v2h3.2v1.1h-4.6v-7.2H181.3z"/>
	<path d="M185.3,51.1v2.8H184v-7.2h2.2c0.5,0,0.9,0.1,1.3,0.2c0.4,0.1,0.6,0.2,0.9,0.4c0.2,0.2,0.4,0.4,0.5,0.7
		c0.1,0.3,0.2,0.5,0.2,0.8c0,0.2,0,0.5-0.1,0.7c-0.1,0.2-0.2,0.4-0.3,0.6s-0.3,0.3-0.5,0.5c-0.2,0.1-0.4,0.2-0.7,0.3
		c0.2,0.1,0.3,0.2,0.4,0.4l1.8,2.7h-1.2c-0.1,0-0.2,0-0.3-0.1c-0.1,0-0.2-0.1-0.2-0.2l-1.5-2.3c-0.1-0.1-0.1-0.1-0.2-0.2
		c-0.1,0-0.2-0.1-0.3-0.1H185.3z M185.3,50.1h0.8c0.3,0,0.5,0,0.7-0.1c0.2-0.1,0.3-0.2,0.5-0.3c0.1-0.1,0.2-0.2,0.3-0.4
		c0.1-0.2,0.1-0.3,0.1-0.5c0-0.4-0.1-0.6-0.4-0.8c-0.2-0.2-0.6-0.3-1.1-0.3h-0.9V50.1z"/>
	<path d="M195.2,51.1v2.8h-1.3v-2.8l-2.6-4.4h1.2c0.1,0,0.2,0,0.3,0.1s0.1,0.1,0.2,0.2l1.3,2.4c0.1,0.1,0.1,0.3,0.2,0.4
		s0.1,0.3,0.2,0.4c0-0.1,0.1-0.3,0.1-0.4c0.1-0.1,0.1-0.3,0.2-0.4l1.3-2.4c0-0.1,0.1-0.1,0.2-0.2c0.1-0.1,0.2-0.1,0.3-0.1h1.2
		L195.2,51.1z"/>
</g>
</svg>
